<?xml version="1.0" encoding="iso-8859-1"?>
<!-- Generator: Adobe Illustrator 19.0.0, SVG Export Plug-In . SVG Version: 6.00 Build 0)  -->
<svg version="1.1" id="Layer_1" xmlns="http://www.w3.org/2000/svg" xmlns:xlink="http://www.w3.org/1999/xlink" x="0px" y="0px"
	 viewBox="0 0 512 512" style="enable-background:new 0 0 512 512;" xml:space="preserve">
<path style="fill:#D7DEED;" d="M485.517,52.966H26.483C11.857,52.966,0,64.822,0,79.448v353.103
	c0,14.626,11.857,26.483,26.483,26.483h459.034c14.626,0,26.483-11.857,26.483-26.483V79.448
	C512,64.822,500.143,52.966,485.517,52.966z M494.345,432.552c0,4.875-3.953,8.828-8.828,8.828H26.483
	c-4.875,0-8.828-3.953-8.828-8.828V114.759c0-4.875,3.953-8.828,8.828-8.828h459.034c4.875,0,8.828,3.953,8.828,8.828V432.552z"/>
<circle style="fill:#FF6464;" cx="26.483" cy="79.448" r="8.828"/>
<circle style="fill:#FFE182;" cx="52.966" cy="79.448" r="8.828"/>
<circle style="fill:#A5D76E;" cx="79.448" cy="79.448" r="8.828"/>
<g>
	<path style="fill:#EFF2FA;" d="M123.586,88.276h-8.828c-4.875,0-8.828-3.953-8.828-8.828l0,0c0-4.875,3.953-8.828,8.828-8.828
		h8.828c4.875,0,8.828,3.953,8.828,8.828l0,0C132.414,84.323,128.461,88.276,123.586,88.276z"/>
	<path style="fill:#EFF2FA;" d="M158.897,88.276h-8.828c-4.875,0-8.828-3.953-8.828-8.828l0,0c0-4.875,3.953-8.828,8.828-8.828
		h8.828c4.875,0,8.828,3.953,8.828,8.828l0,0C167.724,84.323,163.772,88.276,158.897,88.276z"/>
	<path style="fill:#EFF2FA;" d="M450.207,88.276h-8.828c-4.875,0-8.828-3.953-8.828-8.828l0,0c0-4.875,3.953-8.828,8.828-8.828
		h8.828c4.875,0,8.828,3.953,8.828,8.828l0,0C459.034,84.323,455.082,88.276,450.207,88.276z"/>
	<path style="fill:#EFF2FA;" d="M485.517,88.276h-8.828c-4.875,0-8.828-3.953-8.828-8.828l0,0c0-4.875,3.953-8.828,8.828-8.828
		h8.828c4.875,0,8.828,3.953,8.828,8.828l0,0C494.345,84.323,490.392,88.276,485.517,88.276z"/>
	<path style="fill:#EFF2FA;" d="M406.069,88.276H194.207c-4.875,0-8.828-3.953-8.828-8.828l0,0c0-4.875,3.953-8.828,8.828-8.828
		h211.862c4.875,0,8.828,3.953,8.828,8.828l0,0C414.897,84.323,410.944,88.276,406.069,88.276z"/>
</g>
<g>
	<path style="fill:#FF6464;" d="M167.724,238.345h-8.828c-3.939,0-7.405-2.612-8.487-6.401l-9.169-32.086l-9.169,32.086
		c-1.081,3.789-4.547,6.401-8.487,6.401h-8.828c-3.939,0-7.405-2.612-8.487-6.401l-17.655-61.793
		c-1.341-4.69,1.375-9.574,6.06-10.914c4.698-1.341,9.574,1.375,10.914,6.06l13.581,47.535l13.582-47.534
		c1.081-3.789,4.547-6.401,8.487-6.401s7.405,2.612,8.487,6.401l13.582,47.534l13.582-47.534c1.336-4.681,6.225-7.396,10.914-6.06
		c4.685,1.341,7.401,6.225,6.06,10.914l-17.655,61.793C175.129,235.733,171.663,238.345,167.724,238.345z"/>
	<path style="fill:#FF6464;" d="M282.483,238.345h-8.828c-3.939,0-7.405-2.612-8.487-6.401L256,199.858l-9.169,32.086
		c-1.081,3.789-4.547,6.401-8.487,6.401h-8.828c-3.939,0-7.405-2.612-8.487-6.401l-17.655-61.793
		c-1.341-4.69,1.375-9.574,6.06-10.914c4.698-1.341,9.574,1.375,10.914,6.06l13.581,47.535l13.582-47.534
		c1.081-3.789,4.547-6.401,8.487-6.401s7.405,2.612,8.487,6.401l13.582,47.534l13.582-47.534c1.336-4.681,6.225-7.396,10.914-6.06
		c4.685,1.341,7.401,6.225,6.06,10.914l-17.655,61.793C289.888,235.733,286.422,238.345,282.483,238.345z"/>
	<path style="fill:#FF6464;" d="M397.241,238.345h-8.828c-3.939,0-7.405-2.612-8.487-6.401l-9.169-32.086l-9.169,32.086
		c-1.081,3.789-4.547,6.401-8.487,6.401h-8.828c-3.939,0-7.405-2.612-8.487-6.401l-17.655-61.793
		c-1.341-4.69,1.375-9.574,6.06-10.914c4.698-1.341,9.573,1.375,10.914,6.06l13.581,47.535l13.582-47.534
		c1.081-3.789,4.547-6.401,8.487-6.401c3.939,0,7.405,2.612,8.487,6.401l13.582,47.534l13.582-47.534
		c1.341-4.681,6.225-7.396,10.914-6.06c4.685,1.341,7.401,6.225,6.06,10.914l-17.655,61.793
		C404.647,235.733,401.181,238.345,397.241,238.345z"/>
</g>
<path style="fill:#28BEFF;" d="M176.552,291.31H79.448c-4.875,0-8.828-3.953-8.828-8.828l0,0c0-4.875,3.953-8.828,8.828-8.828
	h97.103c4.875,0,8.828,3.953,8.828,8.828l0,0C185.379,287.358,181.427,291.31,176.552,291.31z"/>
<path style="fill:#D7DEED;" d="M388.414,361.931H79.448c-4.875,0-8.828-3.953-8.828-8.828l0,0c0-4.875,3.953-8.828,8.828-8.828
	h308.966c4.875,0,8.828,3.953,8.828,8.828l0,0C397.241,357.978,393.289,361.931,388.414,361.931z"/>
<path style="fill:#C3E678;" d="M203.034,326.621H79.448c-4.875,0-8.828-3.953-8.828-8.828l0,0c0-4.875,3.953-8.828,8.828-8.828
	h123.586c4.875,0,8.828,3.953,8.828,8.828l0,0C211.862,322.668,207.91,326.621,203.034,326.621z"/>
<path style="fill:#28BEFF;" d="M273.655,326.621h-35.31c-4.875,0-8.828-3.953-8.828-8.828l0,0c0-4.875,3.953-8.828,8.828-8.828
	h35.31c4.875,0,8.828,3.953,8.828,8.828l0,0C282.483,322.668,278.53,326.621,273.655,326.621z"/>
<path style="fill:#D7DEED;" d="M308.966,397.241H79.448c-4.875,0-8.828-3.953-8.828-8.828l0,0c0-4.875,3.953-8.828,8.828-8.828
	h229.517c4.875,0,8.828,3.953,8.828,8.828l0,0C317.793,393.289,313.841,397.241,308.966,397.241z"/>
<g>
</g>
<g>
</g>
<g>
</g>
<g>
</g>
<g>
</g>
<g>
</g>
<g>
</g>
<g>
</g>
<g>
</g>
<g>
</g>
<g>
</g>
<g>
</g>
<g>
</g>
<g>
</g>
<g>
</g>
</svg>
